<svg xmlns="http://www.w3.org/2000/svg" viewBox="0 0 325 100"><defs><style>.cls-1{fill:#fff;}</style></defs><g id="Layer_2" data-name="Layer 2"><g id="Layer_1-2" data-name="Layer 1"><rect class="cls-1" width="12.5" height="100"/><rect class="cls-1" x="87.5" width="12.5" height="100"/><rect class="cls-1" y="50" width="50" height="12.5"/><rect class="cls-1" x="50" y="37.5" width="50" height="12.5"/><rect class="cls-1" x="112.5" y="87.5" width="100" height="12.5"/><rect class="cls-1" x="112.5" y="62.5" width="12.5" height="37.5"/><rect class="cls-1" x="125" y="62.5" width="37.5" height="12.5"/><rect class="cls-1" x="162.5" y="50" width="50" height="12.5"/><path class="cls-1" d="M162.5,0a50.24,50.24,0,0,0-50,50H125a37.5,37.5,0,0,1,75,0h12.5A50.24,50.24,0,0,0,162.5,0Z"/><rect class="cls-1" x="225" y="87.5" width="100" height="12.5"/><rect class="cls-1" x="225" width="12.5" height="87.5"/><rect class="cls-1" x="225" width="100" height="12.5"/><rect class="cls-1" x="312.5" width="12.5" height="25"/><rect class="cls-1" x="312.5" y="75" width="12.5" height="12.5"/></g></g></svg>